<?xml version="1.0" standalone="no"?>
<!DOCTYPE svg PUBLIC "-//W3C//DTD SVG 20010904//EN"
 "http://www.w3.org/TR/2001/REC-SVG-20010904/DTD/svg10.dtd">
<svg version="1.0" xmlns="http://www.w3.org/2000/svg"
 width="500.000000pt" height="500.000000pt" viewBox="0 0 500.000000 500.000000"
 preserveAspectRatio="xMidYMid meet">

<g transform="translate(0.000000,500.000000) scale(0.100000,-0.100000)"
fill="#000000" stroke="none">
<path d="M0 2500 l0 -2500 2500 0 2500 0 0 2500 0 2500 -2500 0 -2500 0 0
-2500z m2204 1193 c70 -115 167 -288 214 -385 48 -98 89 -177 92 -177 3 0 30
52 60 116 30 65 82 165 116 223 70 121 242 399 258 418 9 9 104 12 429 10
l418 -3 -430 -659 -430 -658 51 -77 c40 -58 719 -1057 890 -1309 l29 -42 -447
2 -448 3 -182 289 c-101 159 -213 347 -251 418 -37 70 -70 128 -74 128 -4 0
-35 -53 -69 -117 -34 -65 -152 -254 -262 -421 l-201 -302 -434 0 -435 0 45 63
c365 513 940 1334 940 1343 0 8 -831 1287 -866 1332 -7 9 79 12 425 12 l434 0
128 -207z"/>
</g>
</svg>
